name processed_emg_signals
nRows=53
nColumns=7
 
endheader
time	LGLTMED	LRF	LADDLONG	LBF	LTA	LGM
1.578	0.0006028163312596	0.0231405254465733	0.0002287214178966	0.0003012560834164	0.2463517675720207	0.0005189685076897
1.579	0.0004164866190494	0.0219722486313874	0.0003507756767733	3.8395791852502325e-05	0.2611541713770982	0.0005451702764224
1.5799999999999998	0.0002302643206321	0.0208148478438276	0.0004725815426286	0.0002220926356276	0.2759612583457241	0.0005714021383052
1.5809999999999997	4.426462013727388e-05	0.0196689899873301	0.0005940630947276	0.000480043281776	0.2907631484216243	0.0005976471650299
1.5819999999999996	0.0001413969124445	0.0185353264268341	0.0007151448545397	0.0007352936720143	0.3055499775656379	0.0006238884608122
1.5829999999999995	0.0003266044484414	0.0174144920891568	0.0008357519028426	0.0009876850403069	0.3203119151532242	0.0006501091934958
1.5839999999999994	0.0005112420281541	0.0163071045992393	0.0009558099956419	0.0012370625883213	0.3350391813672985	0.000676292625608
1.5849999999999993	0.000695193688822	0.0152137634542391	0.001075245678559	0.0014832757371232	0.3497220645269071	0.0007024221452527
1.5859999999999992	0.0008783435927372	0.0141350492372267	0.0011939863993677	0.0017261783706775	0.3643509382930542	0.0007284812967283
1.586999999999999	0.0010605761553554	0.0130715228720619	0.0013119606183917	0.0019656290704443	0.3789162786949748	0.0007544538107634
1.587999999999999	0.001241776173246	0.0120237249208645	0.0014290979165053	0.0022014913403951	0.3934086809238324	0.0007803236342657
1.5889999999999989	0.0014218289517351	0.0109921749253489	0.0015453291005046	0.0024336338218077	0.4078188758457249	0.0008060749594923
1.5899999999999987	0.0016006204320892	0.0099773707931276	0.0016605863056341	0.0026619304972243	0.4221377461909384	0.0008316922525546
1.5909999999999986	0.0017780373180979	0.0089797882299192	0.0017748030950611	0.0028862608829821	0.4363563423806673	0.0008571602811831
1.5919999999999985	0.0019539672019165	0.0079998802184338	0.0018879145561016	0.0031065102097507	0.4504658979556359	0.0008824641416835
1.5929999999999984	0.0021282986890364	0.0070380765445633	0.0019998573930093	0.0033225695905441	0.4644578445734947	0.000907589285019
1.5939999999999983	0.0023009215222577	0.0060947833713656	0.0021105700161545	0.0035343361757054	0.4783238265438398	0.0009325215419607
1.5949999999999982	0.0024717267045437	0.0051703828611633	0.0022199926274353	0.0037417132943924	0.4920557148711289	0.0009572471472455
1.595999999999998	0.0026406066206469	0.0042652328458631	0.0023280673017775	0.0039446105821234	0.5056456207763645	0.0009817527626851
1.596999999999998	0.0028074551573997	0.003379666545366	0.0024347380645961	0.0041429440939842	0.519085908668278	0.0010060254991669
1.5979999999999979	0.0029721678225744	0.0025139923337245	0.0025399509650966	0.0043366364031592	0.532369208534158	0.0010300529374909
1.5989999999999978	0.0031346418622106	0.0016684935525673	0.0026436541453043	0.0045256166845475	0.5454884277195619	0.0010538231479873
1.5999999999999976	0.0032947763763157	0.0008434283712259	0.0027457979047185	0.0047098207833401	0.5584367620648966	0.0010773247088631
1.6009999999999975	0.0034524724328344	3.9029692943511967e-05	0.0028463347605115	0.0048891912685546	0.5712077063655054	0.0011005467232261
1.6019999999999974	0.0036076331797897	0.0007444948935215	0.0029452195032108	0.0050636774716078	0.5837950641211402	0.0011234788347361
1.6029999999999973	0.0037601639554865	0.0015069631176643	0.003042409247819	0.005233235510087	0.5961929565416142	0.0011461112418353
1.6039999999999972	0.0039099723966709	0.0022482179872296	0.0031378634803319	0.0053978282969456	0.6083958307785311	0.0011684347105168
1.604999999999997	0.0040569685445255	0.0029681277053729	0.0032315440996184	0.0055574255354196	0.6203984673576344	0.0011904405855974
1.605999999999997	0.0042010649483751	0.003666585545986	0.0033234154546208	0.0057120037000144	0.6321959867911674	0.0012121208004676
1.6069999999999969	0.0043421767669706	0.0043435096882461	0.0034134443768332	0.005861546003945	0.643783855353784	0.001233467885302
1.6079999999999968	0.0044802218672112	0.0049988430114987	0.0035016002080141	0.0060060423534426	0.6551578900091506	0.0012544749737151
1.6089999999999967	0.0046151209201575	0.0056325528516423	0.0035878548230904	0.0061454892893677	0.6663142624778998	0.0012751358078579
1.6099999999999965	0.0047467974941818	0.0062446307202218	0.0036721826482155	0.0062798899166062	0.6772495024411874	0.0012954447419509
1.6109999999999964	0.0048751781450869	0.0068350919874657	0.0037545606739601	0.0064092538217555	0.687960499877441	0.001315396744256
1.6119999999999963	0.0050001925030195	0.0074039755305113	0.00383496846363	0.0065335969796192	0.6984445065325154	0.0013349873974962
1.6129999999999962	0.0051217733559927	0.0079513433480846	0.0039133881567203	0.0066529416490382	0.7086991365253849	0.0013542128977331
1.613999999999996	0.0052398567298295	0.0084772801429412	0.0039898044675322	0.0067673162585818	0.7187223660933499	0.0013730700517194
1.614999999999996	0.0053543819643366	0.008981892873431	0.0040642046789798	0.006876755282627	0.7285125324833084	0.0013915562727527
1.6159999999999959	0.005465291785528	0.009465310275608	0.004136578631624	0.0069812991083539	0.738068331998995	0.0014096695750615
1.6169999999999958	0.0055725323737166	0.0099276823573434	0.0042069187079821	0.0070809938941895	0.7473888172174938	0.0014274085667612
1.6179999999999957	0.0056760534272995	0.0103691798659252	0.0042752198121823	0.0071758914202347	0.7564733933908132	0.001444772441424
1.6189999999999956	0.0057758082220596	0.0107899937306342	0.0043414793450616	0.0072660489312092	0.7653218140498232	0.0014617609683065
1.6199999999999954	0.0058717536658017	0.0111903344817935	0.0044056971748363	0.0073515289724402	0.773934175829034	0.0014783744812797
1.6209999999999953	0.0059638503481439	0.0115704316477936	0.0044678756034929	0.007432399219411	0.7823109125322034	0.0014946138665094
1.6219999999999952	0.006052062585293	0.0119305331315926	0.0045280193290587	0.0075087323013728	0.790452788460543	0.0015104805489359
1.6229999999999951	0.0061363584596511	0.0122709045681856	0.0045861354039103	0.0075806056195104	0.7983608910267916	0.001525976477601
1.623999999999995	0.0062167098541192	0.0125918286645142	0.0046422331892741	0.0076481011601374	0.8060366226794147	0.001541104109873
1.624999999999995	0.0062930924809788	0.0128936045232657	0.0046963243060778	0.0077113053033789	0.8134816921623034	0.0015558663946181
1.6259999999999948	0.0063654859052517	0.0131765469519777	0.0047484225823104	0.0077703086277782	0.8206981051374231	0.0015702667543698
1.6269999999999947	0.006433873562457	0.0134409857588461	0.0047985439970608	0.0078252057112401	0.8276881542007054	0.0015843090665505
1.6279999999999946	0.0064982427707188	0.013687265036606	0.0048467066214045	0.0078760949287171	0.8344544083240443	0.0015979976438047
1.6289999999999945	0.0065585847372208	0.0139157424358383	0.0048929305563082	0.0079230782470291	0.840999701757967	0.0016113372135007
1.6299999999999943	0.0066148945590292	0.0141267884290435	0.0049372378677152	0.0079662610172124	0.8473271224304033	0.0016243328964641
